<svg width="512" height="512" fill="none" xmlns="http://www.w3.org/2000/svg"><path d="M290.788 5.155l8.232 2.647c2.92.943 5.836 1.895 8.752 2.85a4037.348 4037.348 0 0018.242 5.914l3.107 1.001 6.268 2.018c3.178 1.024 6.355 2.05 9.532 3.078a3245.402 3245.402 0 0043.708 13.747l2.96.911c8.485 2.61 16.971 5.216 25.463 7.803a6386.822 6386.822 0 0115.435 4.73l4.596 1.387c16.173 4.993 16.173 4.993 20.619 10.652 1.387 4.992.788 8.478-.545 13.455-6.508 6.903-15.612 9.275-24.324 12.38l-5.014 1.824c-5.277 1.915-10.56 3.81-15.844 5.705-3.562 1.291-7.123 2.584-10.685 3.878-6.515 2.359-13.031 4.719-19.554 7.058l-3.966 1.424a98.638 98.638 0 01-9.34 2.64 1344.9 1344.9 0 00-.178 27.246 538.909 538.909 0 01-.087 9.256c-.896 17.657-.896 17.657 4.847 33.756 3.649 3.273 7.244 5.742 11.418 8.287a161.6 161.6 0 016.272 6.091l2.802 2.847c9.835 10.358 9.835 10.358 9.835 14.335l2.532-.231c23.297-1.854 23.297-1.854 30.025 2.447 2.452 3.995 3.793 7.869 5.261 12.33a449.414 449.414 0 002.852 6.573c21.028 48.307 22.774 101.306 5.103 151.034-21.657 53.739-60.547 91.738-113.12 115.069-38.354 15.714-86.28 18.303-126.108 6.596l-3.148-.898c-50.203-14.763-92.471-49.413-117.58-95.102-8.127-15.427-14.576-31.102-18.908-48l-1.41-5.369c-8.611-39.512-4.026-82.369 11.737-119.384 1.299-3.22 2.343-6.456 3.377-9.769 4.135-11.615 4.135-11.615 9.569-15.296 7.038-1.603 14.112-1.253 21.288-1.058 8.684.303 8.684.303 16.422-3.135 2.804-3.798 5.046-7.707 7.38-11.807a178.975 178.975 0 017.546-7.818l3.517-3.489c9.74-9.057 9.74-9.057 13.665-9.057v-65.454l-14.546-4.364a637.16 637.16 0 01-12.557-4.562l-3.361-1.253c-3.484-1.3-6.965-2.606-10.445-3.912l-7.159-2.673c-5.798-2.164-11.592-4.337-17.387-6.509L96.43 114.62l5.818 2.91c6.017 6.371 8.378 12.226 9.182 20.909-.831 9.638-3.151 15.898-10.364 22.545-7.222 5.741-12.756 7.803-22 7.273-8.883-1.149-14.73-4.047-20.91-10.727-6.217-9.212-6.847-17.327-5.363-28.364 3.294-7.743 8.055-14.144 16-17.455h2.91l-.116-4.134c-.124-5.091-.215-10.18-.284-15.273a542.974 542.974 0 00-.15-6.593c-.088-3.171-.129-6.34-.16-9.511l-.116-5.77c.801-5.11 1.757-8.246 5.355-12.026 6.352-4.55 14.09-6.353 21.487-8.579 1.914-.599 3.827-1.2 5.739-1.804 5.152-1.62 10.315-3.203 15.481-4.779 5.39-1.65 10.771-3.331 16.152-5.009 7.758-2.415 15.52-4.82 23.286-7.21a4163.598 4163.598 0 0038.293-12.007 8512.136 8512.136 0 0117.39-5.505 4041.7 4041.7 0 0013.71-4.354 2709.575 2709.575 0 0115.211-4.792l4.464-1.442c16.298-5.033 27.273-3.095 43.343 2.232z" fill="#052A75"/><path d="M93.52 212.075h32.001c-2.431 6.076-5.034 11.055-8.364 16.636-21.512 37.04-29.189 82.087-19.517 124.25 11.725 44.047 37.766 84.181 77.418 107.677 39.214 22.46 86.475 33.248 131.349 22.238 47.062-15.199 86.815-42.841 110.449-87.011 21.454-42.173 26.31-89.134 11.875-134.318-5.301-15.602-11.985-30.882-22.097-44.023-1.841-2.54-1.841-2.54-1.841-5.449 24.339-2.169 24.339-2.169 31.006 2.216 2.458 3.991 3.849 7.883 5.358 12.329a517.575 517.575 0 002.858 6.574c21.002 48.326 22.773 101.291 5.097 151.034-21.657 53.739-60.547 91.738-113.12 115.069-38.354 15.714-86.28 18.303-126.108 6.596l-3.148-.898c-50.203-14.763-92.471-49.414-117.58-95.102-8.127-15.427-14.576-31.102-18.908-48l-1.41-5.369c-10.953-50.256-.203-100.354 24.683-144.449z" fill="#D0DBFC"/><path d="M286.43 30.075c2.037.676 4.076 1.345 6.117 2.01 4.451 1.457 8.89 2.944 13.324 4.452 12.044 4.074 24.187 7.844 36.31 11.675 4.035 1.279 8.066 2.568 12.096 3.862 17.264 5.54 34.586 10.852 51.971 16.001-4.162 3.39-7.972 5.42-13.015 7.23l-4.359 1.58-4.723 1.679-4.944 1.785a6405.38 6405.38 0 01-15.959 5.726c-7.29 2.621-14.577 5.248-21.864 7.875l-5.462 1.966a2121.294 2121.294 0 00-31.811 11.739l-3.612 1.364a2035.8 2035.8 0 00-13.127 4.999 1444.409 1444.409 0 01-8.675 3.307l-4.782 1.84c-8.657 2.51-14.915 1.018-23.213-2.09l-5.13-1.892a260.017 260.017 0 01-9.83-4.08c-7.245-3.143-14.751-5.574-22.221-8.119-9.131-3.11-18.043-6.375-26.91-10.182-5.217-1.89-10.473-3.667-15.727-5.454-10.998-3.79-21.955-7.658-32.818-11.818l-3.351-1.26c-7.567-2.939-7.567-2.939-9.194-6.195 76.432-24.602 76.432-24.602 101.727-32.455l4.666-1.45c2.85-.88 5.707-1.742 8.57-2.582a164.407 164.407 0 009.164-3.15c13.958-4.87 23.127-3.211 36.782 1.637z" fill="#B595EF"/><path d="M214.248 207.711c2.625.282 5.25.569 7.863.944 10.012 1.357 19.831 2.195 29.938 2.21l3.634.014c2.519.008 5.038.011 7.557.011 3.801.003 7.602.03 11.403.057 13.118.043 25.637-.365 38.514-3.236 14.594 29.749 21.818 61.418 21.818 94.546h-59.636V213.53h-24.728v88.727h-59.636c1.73-25.945 1.73-25.945 3.909-38.273l.753-4.284c7.654-41.032 7.654-41.032 18.611-51.989zm61.091 119.273h59.636c-1.694 32.197-1.694 32.197-3.818 41.273l-.758 3.368c-6.942 29.458-17.844 65.856-44.621 83.669-6.862 4.054-6.862 4.054-10.439 4.054V326.984zm-84.364 0h59.636v132.364c-17.474-5.825-28.161-20.219-36.409-36.148-14.876-29.815-23.227-62.883-23.227-96.216zm168.727 0h52.364c0 20.541-5.197 37.163-14.545 55.273l-2.04 4.165c-14.143 27.698-40.439 52.135-69.233 64.198l-2.909-1.454 2.238-3.739c17.661-29.9 27.014-60.834 31.216-95.17l2.909-23.273zm-5.767-131.443c30.289 21.075 48.302 52.916 57.165 87.972.966 5.653.966 5.653.966 18.744h-52.364l-1.636-16.636c-3.26-29.634-10.508-57.559-21.636-85.182a352.856 352.856 0 016.909-3.091 14622.1 14622.1 0 013.886-1.739c3.75-.988 3.75-.988 6.71-.068zM118.248 326.984h48l1.545 15.636c4.229 37.113 15.13 70.458 31.909 103.637-27.432-7.873-49.889-34.383-63.484-58.418-6.819-12.567-11.413-25.22-15.061-39.037l-.83-2.902-.812-2.956-.736-2.619c-.738-4.389-.531-8.89-.531-13.341z" fill="#66CBD0"/><path d="M342.248 142.257v30.545c-51.884 19.551-102.385 22.578-154.182 0v-29.091c9.152 2.51 17.915 5.604 26.727 9.091 9.803 3.857 19.635 7.612 29.546 11.182l3.635 1.351 3.473 1.234 3.026 1.097c11.133 2.523 19.794-1.022 30.076-4.955l4.729-1.761c4.966-1.852 9.922-3.726 14.879-5.602 4.984-1.872 9.969-3.74 14.956-5.603a2419.61 2419.61 0 009.291-3.496l4.223-1.589 3.725-1.409c2.987-.994 2.987-.994 5.896-.994z" fill="#B595EF"/><path d="M186.157 195.984c3.653 1.585 3.653 1.585 6.273 3l-2.909 1.455c-1.076 2.871-2.014 5.794-2.91 8.727-.779 2.309-1.566 4.616-2.358 6.92l-2.642 7.807-1.321 3.852c-5.899 17.506-9.204 34.752-11.406 53.057l-2.636 21.455h-48c1.712-20.547 1.712-20.547 4.454-29.455l.953-3.137c6.034-18.868 15.489-35.059 28.047-50.317l2.529-3.199c2.435-2.958 4.968-5.704 7.653-8.438l3.676-3.772c11.502-10.712 11.502-10.712 20.597-7.955z" fill="#66CBD0"/><path d="M188.066 118.984c9.263 2.582 18.263 5.659 27.273 9l3.528 1.302a1444.614 1444.614 0 0119.926 7.545l8.546 3.244 4.038 1.598 3.848 1.447 3.368 1.304c10.252 2.08 20.228-2.746 29.683-6.264l4.534-1.657c4.755-1.739 9.506-3.492 14.256-5.246 4.777-1.758 9.554-3.513 14.334-5.262 2.969-1.088 5.936-2.18 8.902-3.278l4.047-1.486 3.568-1.318c2.876-.929 2.876-.929 5.785-.929v53.818h-1.454v-30.545a95208.78 95208.78 0 00-28.187 10.405l-9.587 3.538c-4.597 1.696-9.193 3.393-13.789 5.091l-4.321 1.593-4.058 1.5-3.553 1.312c-2.419.912-4.82 1.875-7.206 2.871-10.704 4.077-20.507-.683-30.572-4.492l-4.804-1.776a2388.317 2388.317 0 01-14.651-5.497l-4.628-1.738c-24.639-9.259-24.639-9.259-28.826-11.353v-24.727z" fill="#6924DE"/><path d="M73.157 62.257h1.454l-.028 2.875c.354 4.523.901 7.585 2.938 11.67 6.108 4.035 11.975 6.144 18.909 8.728v29.09l5.818 2.91c6.017 6.371 8.378 12.226 9.182 20.909-.831 9.638-3.151 15.898-10.364 22.545-7.222 5.741-12.756 7.803-22 7.273-8.883-1.149-14.73-4.047-20.91-10.727-6.217-9.212-6.847-17.327-5.363-28.364 3.293-7.743 8.055-14.144 16-17.455h2.91l-.024-4.226c-.026-5.167-.043-10.334-.057-15.5-.007-2.238-.017-4.476-.03-6.713-.017-3.214-.025-6.427-.032-9.64l-.023-3.04c0-7.095 0-7.095 1.62-10.335z" fill="#052A75"/><path d="M214.248 207.711c2.625.282 5.25.569 7.863.944 10.012 1.357 19.831 2.195 29.938 2.21l3.634.014c2.519.008 5.038.011 7.557.011 3.801.003 7.602.03 11.403.057 13.118.043 25.637-.365 38.514-3.236 1.71 3.752 3.405 7.51 5.091 11.273l1.471 3.216 1.392 3.125 1.293 2.862c.935 2.797.935 2.797.935 8.615-16.44 4.218-31.006 6.485-48 5.818v-29.09h-24.728v29.09c-11.426.358-21.884.093-33.091-2l-3.045-.555c-7.118-1.427-7.118-1.427-10.409-4.717.19-8.92 3.761-21.216 10.182-27.637z" fill="#27A0CB"/><path d="M73.157 62.257h1.455l-.029 2.875c.354 4.523.901 7.585 2.938 11.67 6.108 4.035 11.975 6.144 18.909 8.728v29.09l-8.728-2.909c-4.323-.347-4.323-.347-8.545-.181l-4.261.079-3.194.102c-.035-6.575-.062-13.15-.08-19.726-.007-2.238-.017-4.476-.03-6.713a2765.81 2765.81 0 01-.032-9.64l-.022-3.04c-.001-7.095-.001-7.095 1.619-10.335z" fill="#6924DE"/><path d="M353.907 195.513c3.631 2.537 6.877 5.313 10.159 8.289l3.727 3.347c3.458 3.385 6.428 6.904 9.364 10.744a1833.67 1833.67 0 01-10.364 4.273l-2.931 1.224-2.898 1.179-2.632 1.085c-3.796 1.226-7.785 1.765-11.72 2.421l-10.182-27.636c13.628-6.097 13.628-6.097 17.477-4.926zm-172.415-.222l3.938 1.329 3.971 1.307 3.029 1.057-2.91 1.455c-1.051 2.88-2.004 5.797-2.909 8.727-1.255 3.34-2.528 6.673-3.818 10l-1.966 5.079-1.488 3.83c-9.069-2.312-17.692-4.765-26.182-8.727 3.262-6.138 7.182-10.215 12.363-14.818l4.228-3.79c7.361-6.264 7.361-6.264 11.744-5.449z" fill="#27A0CB"/><path d="M82.793 129.257c4.91 1.363 4.91 1.363 7.818 5.727.546 4.364.546 4.364 0 8.727-2.272 2.819-2.272 2.819-5.818 4.364-5.273-.182-5.273-.182-10.182-1.455-3.15-4.724-3.71-6.154-2.909-11.636 3.407-5.178 4.818-5.835 11.091-5.727z" fill="#B595EF"/></svg>