<svg width="1536" height="512" fill="none" xmlns="http://www.w3.org/2000/svg"><path d="M327.588 100.424l4.056 1.305c1.439.464 2.876.934 4.313 1.404a1882.783 1882.783 0 0010.52 3.41l3.088.995 4.697 1.517a1608.459 1608.459 0 0021.537 6.778l1.459.449c4.181 1.286 8.363 2.571 12.547 3.846 2.536.773 5.071 1.552 7.605 2.332l2.265.684c7.969 2.461 7.969 2.461 10.16 5.252.684 2.461.389 4.179-.268 6.633-3.207 3.403-7.693 4.572-11.986 6.103l-2.471.899c-2.6.944-5.203 1.878-7.807 2.813l-5.265 1.911c-3.21 1.164-6.421 2.327-9.635 3.48l-1.954.702a48.696 48.696 0 01-4.603 1.302 660.886 660.886 0 00-.087 13.432 277.655 277.655 0 01-.043 4.563c-.442 8.705-.442 8.705 2.388 16.642 1.798 1.613 3.569 2.83 5.626 4.085a80.334 80.334 0 013.091 3.003l1.38 1.404c4.847 5.106 4.847 5.106 4.847 7.067l1.247-.114c11.48-.914 11.48-.914 14.795 1.206 1.209 1.97 1.869 3.88 2.593 6.079.459 1.084.928 2.164 1.405 3.241 10.362 23.815 11.222 49.943 2.514 74.459-10.671 26.493-29.834 45.226-55.74 56.728-18.899 7.747-42.514 9.024-62.14 3.252l-1.551-.442c-24.738-7.279-45.565-24.361-57.937-46.885-4.005-7.606-7.183-15.334-9.318-23.664l-.694-2.647c-4.244-19.48-1.984-40.608 5.783-58.856.64-1.588 1.154-3.183 1.664-4.817 2.037-5.726 2.037-5.726 4.715-7.54 3.468-.79 6.954-.618 10.49-.522 4.279.15 4.279.15 8.092-1.545 1.382-1.873 2.486-3.8 3.637-5.821a87.799 87.799 0 013.718-3.855l1.733-1.719c4.799-4.465 4.799-4.465 6.733-4.465v-32.269l-7.167-2.152a306.405 306.405 0 01-6.188-2.249l-1.656-.618c-1.717-.64-3.432-1.284-5.147-1.928l-3.528-1.318a6272.682 6272.682 0 01-8.567-3.209l-.717 13.625 2.867 1.434c2.965 3.141 4.129 6.028 4.525 10.308-.41 4.752-1.553 7.838-5.107 11.115-3.559 2.83-6.286 3.847-10.841 3.586-4.377-.567-7.258-1.996-10.303-5.289-3.064-4.541-3.374-8.542-2.643-13.983 1.623-3.817 3.969-6.973 7.884-8.605h1.434l-.057-2.038c-.061-2.51-.106-5.019-.14-7.53a271.207 271.207 0 00-.073-3.251 261.755 261.755 0 01-.08-4.688l-.057-2.845c.395-2.519.866-4.065 2.639-5.929 3.13-2.243 6.943-3.132 10.588-4.229a920.445 920.445 0 0110.456-3.245c2.656-.814 5.307-1.643 7.959-2.47 3.823-1.191 7.647-2.376 11.474-3.554 6.3-1.941 12.588-3.919 18.869-5.92 2.855-.908 5.712-1.811 8.569-2.714 2.253-.712 4.505-1.426 6.756-2.146 2.495-.797 4.995-1.581 7.495-2.363l2.2-.71c8.03-2.482 13.438-1.526 21.357 1.1z" fill="#052A75"/><path d="M509.82 185.045l1.49-.001c12.348.019 23.526 1.748 35.153 5.917l2.22.776c10.54 4.017 19.321 10.599 27.165 18.586l1.624 1.627c8.745 9.283 14.904 21.437 18.355 33.644l.415 1.468c2.243 8.587 2.756 17.236 2.739 26.074l.011 3.241c.009 2.903.01 5.805.008 8.707-.001 2.436.003 4.872.006 7.308.008 5.751.008 11.503.004 17.255-.004 5.907.005 11.814.02 17.721.013 5.098.017 10.196.015 15.295-.002 3.033 0 6.066.01 9.1.009 2.853.008 5.707-.002 8.56-.001 1.039.001 2.078.006 3.117.078 14.505-3.378 26.837-13.143 37.759-10.852 10.631-25.615 12.898-40.13 12.858h-3.01c-2.71 0-5.419-.004-8.129-.009-2.837-.004-5.674-.005-8.511-.006-5.366-.002-10.732-.008-16.098-.015-7.256-.01-14.511-.013-21.767-.018-11.422-.006-22.845-.021-34.267-.034v-46.61l17.359-.082c3.632-.021 7.264-.044 10.896-.068 5.763-.039 11.526-.076 17.29-.099 4.647-.018 9.294-.047 13.941-.083 1.772-.012 3.544-.021 5.315-.025 2.485-.007 4.969-.027 7.453-.05l2.212.003c5.076-.067 9.571-.477 13.316-4.253 1.538-3.539 1.45-6.647 1.373-10.464l-.012-2.296a830.123 830.123 0 00-.089-7.233c-.014-1.639-.027-3.277-.039-4.916-.032-4.009-.08-8.017-.14-12.025l-1.277 1.461c-9.625 10.882-22.261 18.165-36.998 19.267l-1.862.067-2.78.112c-18.25.492-35.38-3.916-49.541-15.888l-1.742-1.425c-10.658-9.086-17.755-21.14-21.911-34.429l-.463-1.45c-2.44-8.046-2.683-16.155-2.717-24.5l-.014-1.548c-.124-22.393 7.962-42.308 23.263-58.552l1.198-1.339c15.615-16.783 39.775-22.485 61.785-22.505zm-17.829 55.395l-2.285 1.569c-7.276 7.28-10.151 15.953-10.258 26.039.101 10.329 3.172 17.957 10.124 25.591 7.197 6.95 15.268 8.102 24.744 7.95 8.963-.351 15.176-4.431 21.216-10.773 6.387-7.651 8.022-17.002 7.484-26.672-.818-8.805-4.734-16.496-11.112-22.538-11.997-9.945-27.268-10.001-39.913-1.166zm779.089-37.288c2.48 2.057 4.84 4.22 7.17 6.454.54.5 1.09 1 1.65 1.515 10.07 9.541 16.91 22.487 20.56 35.773.23.799.46 1.597.7 2.42 3.36 14.219 2.93 31.69-1.41 45.625-.25.812-.51 1.625-.76 2.462-6.46 18.328-18.29 32.735-34.36 43.432-.62.414-1.23.828-1.86 1.254-19.92 12.732-47 15.181-69.68 10.219-13.89-3.302-26.53-9.299-37.41-18.644a238.34 238.34 0 00-1.81-1.521c-14.84-12.836-24.59-31.339-26.86-50.827-.22-3.841-.27-7.671-.26-11.518v-1.577c.03-8.325.56-16.226 3.13-24.193.15-.466.3-.932.46-1.412 3.84-11.44 10.02-21.328 18.18-30.14.52-.581 1.04-1.161 1.58-1.759 12.88-13.674 31.11-21.504 49.3-24.773l2.19-.404c24.86-2.75 49.34 2.431 69.49 17.614zm-81.71 41.591c-6.68 7.824-8.57 18.65-7.88 28.683 1.31 9.725 4.76 18.449 12.18 25.098 7.66 5.647 16.57 8.234 26.02 6.816 8.74-1.666 15.38-5.025 21.29-11.835 6.69-10.239 8.43-21.743 6.27-33.616-2.14-8.877-6.68-16.293-14.16-21.6-14.85-8.534-31.98-5.756-43.72 6.454z" fill="#6924DE"/><path d="M181.646 130.681l19.352.045v49.479c-19.71.224-19.71.224-25.857.278-18.375.228-35.306 2.459-49.425 15.459-12.411 12.984-17.618 29.877-17.308 47.571.798 16.151 6.235 31.83 18.369 43 16.433 13.607 34.823 14.468 55.272 14.656l18.949.224v48.762l-23.742.134-7.389.059c-11.503.055-22.752-.145-34.092-2.345l-2.526-.488a107.525 107.525 0 01-5.85-1.439l-2.052-.552c-6.83-1.917-13.277-4.51-19.674-7.56l-1.584-.747c-12.737-6.109-24.593-14.783-33.536-25.785l-1.677-2.031c-19.01-23.52-25.05-53.881-22.014-83.494 2.215-18.776 8.86-37.363 20.824-52.156l.96-1.189c20.284-24.928 49.254-37.6 80.747-41.119 10.719-1.049 21.497-.797 32.253-.762z" fill="#6825DD"/><path d="M769.094 203.981c13.712 11.86 21.612 28.535 23.207 46.499.342 7.138.26 14.291.218 21.436-.013 2.759-.014 5.518-.017 8.277-.007 5.203-.024 10.406-.046 15.61-.029 7.046-.04 14.092-.053 21.139-.02 11.071-.063 22.142-.102 33.213h-55.188l-.056-20.429c-.018-4.278-.037-8.555-.059-12.833-.035-6.786-.066-13.572-.079-20.358-.01-4.943-.029-9.885-.06-14.828-.016-2.615-.028-5.229-.027-7.844.001-2.927-.021-5.853-.045-8.779l.011-2.596c-.096-7.819-1.999-14.837-7.499-20.611-6.092-5.837-12.45-7.98-20.855-7.89-6.752.561-12.87 3.395-17.919 7.888-1.429 1.814-1.429 1.814-2.643 3.809l-1.262 1.964c-2.838 5.398-2.763 10.463-2.774 16.459l-.022 2.821c-.019 2.54-.03 5.081-.039 7.622-.011 2.659-.031 5.319-.049 7.978a8437.38 8437.38 0 00-.084 15.093c-.032 6.802-.076 13.604-.119 20.406-.067 10.709-.12 21.418-.175 32.128H628.17c-.058-23.606-.058-23.606-.07-33.562-.009-6.851-.019-13.703-.038-20.554-.015-4.992-.024-9.984-.027-14.976a2319.7 2319.7 0 00-.017-7.914c-.086-22.519 1.064-43.737 16.637-61.392l1.657-2.196c12.503-13.674 29.843-20.761 47.797-23.619l2.573-.418c25.9-3.037 51.969 1.631 72.412 18.457zm641.346-18.936l1.54-.001c7.93.012 15.51.424 23.23 2.332l1.49.338c11.18 2.59 22.16 7.761 30.76 15.438.57.458 1.14.917 1.72 1.389 6.94 5.808 11.73 13.007 15.8 21.02.23.448.45.896.69 1.357 3.59 7.425 4.32 14.289 4.26 22.454-.01 1.103-.01 2.206 0 3.31 0 2.974-.02 5.949-.03 8.923-.01 3.116-.02 6.232-.02 9.348 0 5.892-.02 11.784-.04 17.676-.03 7.967-.04 15.935-.06 23.903-.02 12.541-.06 25.082-.1 37.623h-53.04c-.02-6.742-.03-13.483-.05-20.429l-.06-12.833c-.04-6.786-.07-13.572-.08-20.358-.01-4.943-.03-9.885-.06-14.828-.02-2.615-.03-5.229-.03-7.844 0-2.927-.02-5.853-.04-8.779 0-.857 0-1.714.01-2.596-.11-8.797-2.69-15.442-8.71-21.821-5.48-5.17-12.26-6.759-19.65-6.68-6.96.579-13.73 3.591-18.63 8.605-3.42 4.896-5.9 9.557-5.93 15.638l-.03 2.468v2.676l-.03 2.842c-.01 2.563-.03 5.126-.04 7.689-.01 2.681-.03 5.363-.04 8.044-.04 5.074-.06 10.148-.09 15.223-.03 6.859-.07 13.718-.12 20.578-.06 10.801-.12 21.603-.17 32.405h-55.19c-.06-24.023-.06-24.023-.07-34.142-.01-6.968-.02-13.936-.04-20.904l-.03-15.229c0-2.684 0-5.367-.01-8.051-.01-2.535-.01-5.07-.01-7.605 0-1.355-.01-2.711-.02-4.066.04-17.766 4.7-34.92 16.66-48.401.38-.481.76-.961 1.15-1.457 12.01-14.912 32.08-22.358 50.51-24.781 4.85-.491 9.73-.469 14.6-.474zm-488.411-34.958h54.472v38.723h43.719v43.025h-43.719c.065 11.893.065 11.893.15 23.786.039 4.85.075 9.701.098 14.551.019 3.91.048 7.82.084 11.731.012 1.492.02 2.984.025 4.476.007 2.089.027 4.178.05 6.268l-.003 1.871c.066 4.223.835 6.68 3.896 9.743 2.183.741 4.255.825 6.548.864l2.248.044 2.347.036 2.169.041c2.67.049 5.341.092 8.007.136l18.1.313v44.46c-14.41.115-14.41.115-20.62.14-4.213.017-8.426.037-12.64.076-3.402.031-6.803.048-10.205.056-1.29.005-2.579.015-3.868.031-14.721.171-28.177-2.8-39.101-13.457-8.933-9.882-12.016-22.691-11.919-35.725l-.001-2.293c.001-2.471.012-4.942.023-7.414l.007-5.175c.005-4.519.019-9.037.035-13.556.015-4.619.021-9.239.028-13.858.016-9.049.041-18.097.07-27.145h-25.085V188.81h25.085v-38.723zm-99.625 38.723h55.188v161.345h-55.188V188.81z" fill="#6924DE"/><path d="M1046.74 188.81h54.47v161.345h-54.47V188.81z" fill="#6825DD"/><path d="M230.384 202.435h15.768c-1.198 2.995-2.481 5.45-4.121 8.201-10.601 18.261-14.383 40.469-9.617 61.255 5.777 21.715 18.609 41.501 38.148 53.085 19.323 11.072 42.61 16.391 64.722 10.963 23.19-7.493 42.779-21.121 54.424-42.896 10.572-20.791 12.965-43.943 5.852-66.219-2.613-7.692-5.906-15.225-10.889-21.703-.907-1.252-.907-1.252-.907-2.686 11.993-1.069 11.993-1.069 15.278 1.092 1.212 1.968 1.897 3.887 2.641 6.079.461 1.083.931 2.163 1.408 3.241 10.349 23.824 11.222 49.936 2.511 74.459-10.671 26.493-29.834 45.226-55.74 56.728-18.899 7.747-42.515 9.024-62.14 3.252l-1.551-.442c-24.738-7.279-45.565-24.361-57.937-46.885-4.005-7.606-7.183-15.334-9.318-23.664l-.694-2.647c-5.398-24.776-.101-49.474 12.162-71.213z" fill="#D0DBFC"/><path d="M325.44 112.709c1.004.333 2.009.664 3.015.991a631.37 631.37 0 016.565 2.195c5.935 2.008 11.918 3.867 17.892 5.755 1.988.631 3.975 1.267 5.96 1.905 8.507 2.731 17.043 5.35 25.609 7.888-2.051 1.671-3.928 2.672-6.413 3.564l-2.148.78-2.327.827-2.436.88c-2.62.946-5.242 1.885-7.864 2.823-3.592 1.292-7.183 2.587-10.774 3.882l-2.691.97c-5.24 1.89-10.466 3.813-15.675 5.787l-1.78.672c-2.158.817-4.316 1.634-6.468 2.465-1.423.549-2.849 1.09-4.275 1.63l-2.356.907c-4.266 1.238-7.349.502-11.438-1.03l-2.528-.933a127.915 127.915 0 01-4.844-2.011c-3.57-1.55-7.269-2.748-10.95-4.003-4.499-1.533-8.89-3.143-13.259-5.019-2.571-.932-5.161-1.808-7.75-2.689-5.419-1.869-10.818-3.776-16.171-5.827l-1.652-.621c-3.728-1.449-3.728-1.449-4.53-3.054 37.662-12.128 37.662-12.128 50.126-16l2.299-.715a314.92 314.92 0 014.223-1.273 80.681 80.681 0 004.516-1.553c6.878-2.401 11.396-1.583 18.124.807z" fill="#B595EF"/><path d="M1093.33 117.101c6.31 5.106 10.13 12.107 11.47 20.079.87 8.514-1.39 16.085-6.45 22.947-4.67 5.725-10.22 9.143-17.21 11.473-10.72.994-18.96-.399-27.63-7.07-2.48-2.176-4.35-4.453-6.05-7.272l-.85-1.383c-3.83-6.942-4.3-14.858-2.6-22.491 2.34-7.848 6.64-14.411 13.85-18.487 12.06-6.38 24.32-5.773 35.47 2.204zm-226.265-1.613a87.314 87.314 0 012.643 2.331l1.47 1.249c5.337 4.846 8.989 11.387 9.452 18.63.256 9.989-1.764 17.944-8.797 25.412-7.697 7.267-15.014 8.85-25.214 8.686-8.601-.339-14.673-4.692-20.452-10.773-6.281-7.483-7.248-15.906-6.63-25.277 1.099-7.454 5.531-14.312 11.348-19.006 10.661-7.361 25.142-9.147 36.18-1.252z" fill="#6924DE"/><path d="M289.873 200.284c1.293.138 2.587.28 3.874.464 4.934.669 9.772 1.083 14.752 1.09a998.916 998.916 0 005.515.013c1.873.001 3.745.014 5.618.028 6.465.021 12.633-.18 18.978-1.595 7.191 14.666 10.751 30.278 10.751 46.61h-29.386v-43.742h-12.184v43.742h-29.386c.852-12.791.852-12.791 1.926-18.868l.371-2.112c3.771-20.229 3.771-20.229 9.171-25.63z" fill="#67CBD1"/><path d="M319.975 259.085h29.386c-.835 15.873-.835 15.873-1.881 20.347l-.373 1.661c-3.421 14.522-8.793 32.466-21.988 41.248-3.381 1.999-3.381 1.999-5.144 1.999v-65.255zm-41.57 0h29.386v65.255c-8.611-2.872-13.877-9.968-17.941-17.821-7.33-14.699-11.445-31.002-11.445-47.434zm83.141 0h25.802c0 10.126-2.561 18.321-7.167 27.249l-1.005 2.053c-6.969 13.655-19.927 25.703-34.115 31.65l-1.433-.717 1.103-1.843c8.702-14.741 13.311-29.991 15.381-46.919l1.434-11.473zm-2.842-64.801c14.925 10.39 23.801 26.087 28.168 43.369.476 2.787.476 2.787.476 9.241h-25.802l-.807-8.202c-1.606-14.609-5.178-28.376-10.661-41.994a184.889 184.889 0 013.404-1.524l1.915-.857c1.848-.487 1.848-.487 3.307-.033zm-116.136 64.801h23.653l.761 7.708c2.084 18.297 7.456 34.736 15.723 51.093-13.517-3.882-24.583-16.951-31.282-28.8-3.36-6.195-5.623-12.433-7.421-19.245l-.409-1.431-.4-1.457-.363-1.291c-.363-2.164-.262-4.383-.262-6.577z" fill="#66CBD0"/><path d="M352.945 168.015v15.058c-25.566 9.639-50.451 11.131-75.974 0v-14.341c4.51 1.237 8.828 2.762 13.17 4.481a533.034 533.034 0 0014.559 5.513l1.791.666 1.711.609 1.492.54c5.485 1.244 9.753-.504 14.82-2.442l2.33-.869c2.447-.913 4.889-1.837 7.332-2.762 2.455-.923 4.912-1.843 7.369-2.762 1.528-.571 3.053-1.146 4.578-1.723l2.081-.784 1.836-.694c1.471-.49 1.471-.49 2.905-.49z" fill="#B595EF"/><path d="M276.031 194.502c1.8.782 1.8.782 3.091 1.479l-1.434.717a73.02 73.02 0 00-1.433 4.303 684.394 684.394 0 01-1.162 3.411l-1.302 3.849-.651 1.899c-2.907 8.631-4.536 17.132-5.62 26.157l-1.3 10.577h-23.652c.844-10.129.844-10.129 2.195-14.521l.47-1.547c2.973-9.302 7.632-17.284 13.82-24.806l1.246-1.577a63.717 63.717 0 013.771-4.16l1.812-1.859c5.667-5.281 5.667-5.281 10.149-3.922z" fill="#66CBD0"/><path d="M276.971 156.541c4.565 1.273 9 2.79 13.439 4.437l1.739.642a699.185 699.185 0 019.818 3.72l4.211 1.599 1.99.788 1.896.713 1.66.643c5.051 1.026 9.967-1.354 14.626-3.088l2.234-.817c2.344-.857 4.684-1.721 7.025-2.586 2.354-.867 4.708-1.732 7.063-2.595 1.463-.536 2.925-1.074 4.386-1.616l1.995-.732 1.758-.65c1.417-.458 1.417-.458 2.851-.458v26.532h-.717v-15.058l-13.889 5.129-4.724 1.745-6.795 2.509-2.129.786-1.999.739-1.751.647c-1.192.45-2.375.924-3.551 1.415-5.274 2.011-10.105-.336-15.064-2.214l-2.368-.875a1227.18 1227.18 0 01-7.219-2.711l-2.28-.857c-12.142-4.564-12.142-4.564-14.205-5.596v-12.191z" fill="#6825DD"/><path d="M220.35 128.575h.716l-.014 1.417c.175 2.23.444 3.74 1.448 5.754 3.01 1.989 5.901 3.029 9.317 4.302v14.342l2.867 1.434c2.965 3.141 4.129 6.028 4.525 10.308-.41 4.752-1.553 7.838-5.107 11.115-3.559 2.83-6.286 3.847-10.841 3.586-4.377-.567-7.258-1.996-10.303-5.289-3.064-4.541-3.374-8.542-2.643-13.983 1.623-3.817 3.969-6.973 7.884-8.605h1.434l-.011-2.084a2780.29 2780.29 0 01-.028-7.641c-.004-1.104-.009-2.207-.015-3.31a1254.55 1254.55 0 01-.016-4.752l-.011-1.499c-.001-3.498-.001-3.498.798-5.095z" fill="#052A75"/><path d="M289.873 200.284c1.293.138 2.587.28 3.874.464 4.934.669 9.772 1.083 14.752 1.09a998.916 998.916 0 005.515.013c1.873.001 3.745.014 5.618.028 6.465.021 12.633-.18 18.978-1.595a924.354 924.354 0 012.509 5.557l.725 1.585.686 1.541.637 1.411c.46 1.379.46 1.379.46 4.247-8.1 2.08-15.278 3.197-23.652 2.869v-14.342h-12.184v14.342c-5.631.176-10.784.045-16.306-.986l-1.5-.274c-3.508-.704-3.508-.704-5.13-2.326.094-4.397 1.854-10.459 5.018-13.624z" fill="#27A0CB"/><path d="M220.35 128.575h.716l-.014 1.417c.175 2.23.444 3.74 1.448 5.754 3.01 1.989 5.901 3.029 9.317 4.302v14.342l-4.3-1.434c-2.13-.171-2.13-.171-4.211-.09l-2.1.039-1.573.051c-.018-3.242-.031-6.484-.039-9.725-.004-1.104-.009-2.207-.015-3.31a1254.55 1254.55 0 01-.016-4.752l-.011-1.499c-.001-3.498-.001-3.498.798-5.095z" fill="#6825DD"/><path d="M358.69 194.27c1.789 1.25 3.389 2.619 5.006 4.086l1.837 1.65c1.703 1.669 3.167 3.404 4.613 5.297a944.34 944.34 0 01-5.106 2.107l-1.445.603-1.428.581-1.296.535c-1.871.604-3.837.87-5.776 1.194l-5.017-13.625c6.716-3.006 6.716-3.006 8.612-2.428zm-84.958-.11l1.94.656 1.957.644 1.493.521-1.434.717a88.875 88.875 0 00-1.433 4.303 525.455 525.455 0 01-1.882 4.93l-.968 2.504-.734 1.888c-4.468-1.14-8.717-2.349-12.901-4.303 1.607-3.026 3.539-5.036 6.092-7.305l2.083-1.868c3.627-3.088 3.627-3.088 5.787-2.687z" fill="#27A0CB"/><path d="M225.098 161.606c2.419.672 2.419.672 3.853 2.823.268 2.151.268 2.151 0 4.303-1.12 1.389-1.12 1.389-2.867 2.151-2.599-.09-2.599-.09-5.017-.717-1.553-2.329-1.829-3.034-1.434-5.737 1.679-2.553 2.374-2.877 5.465-2.823z" fill="#B595EF"/></svg>